<svg width="375" height="150" viewBox="0 0 375 150" fill="none" xmlns="http://www.w3.org/2000/svg">
<g clip-path="url(#clip0)">
<path d="M10.4355 39.5859C10.4355 37.8477 10.7676 36.2168 11.4316 34.6934C12.0957 33.1699 12.9941 31.8418 14.127 30.709C15.2793 29.5566 16.6172 28.6484 18.1406 27.9844C19.6641 27.3203 21.2949 26.9883 23.0332 26.9883H42.3105V35.3965H23.0332C22.4473 35.3965 21.9004 35.5039 21.3926 35.7188C20.8848 35.9336 20.4355 36.2363 20.0449 36.627C19.6738 36.998 19.3809 37.4375 19.166 37.9453C18.9512 38.4531 18.8438 39 18.8438 39.5859C18.8438 40.1719 18.9512 40.7285 19.166 41.2559C19.3809 41.7637 19.6738 42.2129 20.0449 42.6035C20.4355 42.9746 20.8848 43.2676 21.3926 43.4824C21.9004 43.6973 22.4473 43.8047 23.0332 43.8047H31.4414C33.1797 43.8047 34.8105 44.1367 36.334 44.8008C37.877 45.4453 39.2148 46.3438 40.3477 47.4961C41.5 48.6289 42.3984 49.9668 43.043 51.5098C43.707 53.0332 44.0391 54.6641 44.0391 56.4023C44.0391 58.1406 43.707 59.7715 43.043 61.2949C42.3984 62.8184 41.5 64.1562 40.3477 65.3086C39.2148 66.4414 37.877 67.3398 36.334 68.0039C34.8105 68.668 33.1797 69 31.4414 69H12.7793V60.5918H31.4414C32.0273 60.5918 32.5742 60.4844 33.082 60.2695C33.5898 60.0547 34.0293 59.7617 34.4004 59.3906C34.791 59 35.0938 58.5508 35.3086 58.043C35.5234 57.5352 35.6309 56.9883 35.6309 56.4023C35.6309 55.8164 35.5234 55.2695 35.3086 54.7617C35.0938 54.2539 34.791 53.8145 34.4004 53.4434C34.0293 53.0527 33.5898 52.75 33.082 52.5352C32.5742 52.3203 32.0273 52.2129 31.4414 52.2129H23.0332C21.2949 52.2129 19.6641 51.8809 18.1406 51.2168C16.6172 50.5527 15.2793 49.6543 14.127 48.5215C12.9941 47.3691 12.0957 46.0312 11.4316 44.5078C10.7676 42.9648 10.4355 41.3242 10.4355 39.5859ZM79.0488 53.0332C79.0488 55.377 78.6289 57.5645 77.7891 59.5957C76.9492 61.6074 75.8066 63.3555 74.3613 64.8398C72.916 66.3047 71.2168 67.4668 69.2637 68.3262C67.3301 69.166 65.25 69.5859 63.0234 69.5859C60.8164 69.5859 58.7363 69.166 56.7832 68.3262C54.8496 67.4668 53.1504 66.3047 51.6855 64.8398C50.2402 63.3555 49.0977 61.6074 48.2578 59.5957C47.418 57.5645 46.998 55.377 46.998 53.0332C46.998 50.6504 47.418 48.4434 48.2578 46.4121C49.0977 44.3809 50.2402 42.6328 51.6855 41.168C53.1504 39.6836 54.8496 38.5215 56.7832 37.6816C58.7363 36.8418 60.8164 36.4219 63.0234 36.4219C65.25 36.4219 67.3301 36.8223 69.2637 37.623C71.2168 38.4043 72.916 39.5273 74.3613 40.9922C75.8066 42.4375 76.9492 44.1855 77.7891 46.2363C78.6289 48.2676 79.0488 50.5332 79.0488 53.0332ZM70.9922 53.0332C70.9922 51.7441 70.7773 50.582 70.3477 49.5469C69.9375 48.4922 69.3711 47.5938 68.6484 46.8516C67.9258 46.0898 67.0762 45.5137 66.0996 45.123C65.1426 44.7129 64.1172 44.5078 63.0234 44.5078C61.9297 44.5078 60.8945 44.7129 59.918 45.123C58.9609 45.5137 58.1211 46.0898 57.3984 46.8516C56.6953 47.5938 56.1387 48.4922 55.7285 49.5469C55.3184 50.582 55.1133 51.7441 55.1133 53.0332C55.1133 54.2441 55.3184 55.3672 55.7285 56.4023C56.1387 57.4375 56.6953 58.3359 57.3984 59.0977C58.1211 59.8594 58.9609 60.4648 59.918 60.9141C60.8945 61.3438 61.9297 61.5586 63.0234 61.5586C64.1172 61.5586 65.1426 61.3535 66.0996 60.9434C67.0762 60.5332 67.9258 59.957 68.6484 59.2148C69.3711 58.4727 69.9375 57.5742 70.3477 56.5195C70.7773 55.4648 70.9922 54.3027 70.9922 53.0332ZM91.4707 69H83.4727V37.623H85.4062L88.043 41.3438C89.332 40.1719 90.7969 39.2734 92.4375 38.6484C94.0781 38.0039 95.7773 37.6816 97.5352 37.6816H104.596V45.6504H97.5352C96.6953 45.6504 95.9043 45.8066 95.1621 46.1191C94.4199 46.4316 93.7754 46.8613 93.2285 47.4082C92.6816 47.9551 92.252 48.5996 91.9395 49.3418C91.627 50.084 91.4707 50.875 91.4707 51.7148V69ZM120.211 61.3242C120.523 61.4219 120.836 61.4902 121.148 61.5293C121.461 61.5488 121.773 61.5586 122.086 61.5586C122.867 61.5586 123.619 61.4512 124.342 61.2363C125.064 61.0215 125.738 60.7188 126.363 60.3281C127.008 59.918 127.574 59.4297 128.062 58.8633C128.57 58.2773 128.98 57.6328 129.293 56.9297L135.152 62.8184C134.41 63.873 133.551 64.8203 132.574 65.6602C131.617 66.5 130.572 67.2129 129.439 67.7988C128.326 68.3848 127.145 68.8242 125.895 69.1172C124.664 69.4297 123.395 69.5859 122.086 69.5859C119.879 69.5859 117.799 69.1758 115.846 68.3555C113.912 67.5352 112.213 66.3926 110.748 64.9277C109.303 63.4629 108.16 61.7246 107.32 59.7129C106.48 57.6816 106.061 55.4551 106.061 53.0332C106.061 50.5527 106.48 48.2871 107.32 46.2363C108.16 44.1855 109.303 42.4375 110.748 40.9922C112.213 39.5469 113.912 38.4238 115.846 37.623C117.799 36.8223 119.879 36.4219 122.086 36.4219C123.395 36.4219 124.674 36.5781 125.924 36.8906C127.174 37.2031 128.355 37.6523 129.469 38.2383C130.602 38.8242 131.656 39.5469 132.633 40.4062C133.609 41.2461 134.469 42.1934 135.211 43.248L120.211 61.3242ZM124.312 44.8301C123.941 44.6934 123.57 44.6055 123.199 44.5664C122.848 44.5273 122.477 44.5078 122.086 44.5078C120.992 44.5078 119.957 44.7129 118.98 45.123C118.023 45.5137 117.184 46.0801 116.461 46.8223C115.758 47.5645 115.201 48.4629 114.791 49.5176C114.381 50.5527 114.176 51.7246 114.176 53.0332C114.176 53.3262 114.186 53.6582 114.205 54.0293C114.244 54.4004 114.293 54.7812 114.352 55.1719C114.43 55.543 114.518 55.9043 114.615 56.2559C114.713 56.6074 114.84 56.9199 114.996 57.1934L124.312 44.8301ZM147.311 69H139.254V25.1426H147.311V69ZM161.49 69H153.434V25.1426H161.49V69ZM197.994 69H196.061L192.955 64.6934C192.193 65.377 191.383 66.0215 190.523 66.627C189.684 67.2129 188.795 67.7305 187.857 68.1797C186.92 68.6094 185.953 68.9512 184.957 69.2051C183.98 69.459 182.984 69.5859 181.969 69.5859C179.762 69.5859 177.682 69.2148 175.729 68.4727C173.795 67.7305 172.096 66.6562 170.631 65.25C169.186 63.8242 168.043 62.0859 167.203 60.0352C166.363 57.9844 165.943 55.6504 165.943 53.0332C165.943 50.5918 166.363 48.3555 167.203 46.3242C168.043 44.2734 169.186 42.5156 170.631 41.0508C172.096 39.5859 173.795 38.4531 175.729 37.6523C177.682 36.832 179.762 36.4219 181.969 36.4219C182.984 36.4219 183.99 36.5488 184.986 36.8027C185.982 37.0566 186.949 37.4082 187.887 37.8574C188.824 38.3066 189.713 38.834 190.553 39.4395C191.412 40.0449 192.213 40.6992 192.955 41.4023L196.061 37.6816H197.994V69ZM189.938 53.0332C189.938 51.9395 189.723 50.8848 189.293 49.8691C188.883 48.834 188.316 47.9258 187.594 47.1445C186.871 46.3438 186.021 45.709 185.045 45.2402C184.088 44.752 183.062 44.5078 181.969 44.5078C180.875 44.5078 179.84 44.6934 178.863 45.0645C177.906 45.4355 177.066 45.9824 176.344 46.7051C175.641 47.4277 175.084 48.3262 174.674 49.4004C174.264 50.4551 174.059 51.666 174.059 53.0332C174.059 54.4004 174.264 55.6211 174.674 56.6953C175.084 57.75 175.641 58.6387 176.344 59.3613C177.066 60.084 177.906 60.6309 178.863 61.002C179.84 61.373 180.875 61.5586 181.969 61.5586C183.062 61.5586 184.088 61.3242 185.045 60.8555C186.021 60.3672 186.871 59.7324 187.594 58.9512C188.316 58.1504 188.883 57.2422 189.293 56.2266C189.723 55.1914 189.938 54.127 189.938 53.0332Z" fill="#1642BB"/>
<path d="M252.328 64.6934C250.375 66.373 248.188 67.6621 245.766 68.5605C243.344 69.459 240.834 69.9082 238.236 69.9082C236.244 69.9082 234.32 69.6445 232.465 69.1172C230.629 68.6094 228.9 67.8867 227.279 66.9492C225.678 65.9922 224.213 64.8496 222.885 63.5215C221.557 62.1934 220.414 60.7285 219.457 59.127C218.52 57.5059 217.787 55.7773 217.26 53.9414C216.752 52.0859 216.498 50.1621 216.498 48.1699C216.498 46.1777 216.752 44.2539 217.26 42.3984C217.787 40.543 218.52 38.8145 219.457 37.2129C220.414 35.5918 221.557 34.1172 222.885 32.7891C224.213 31.4609 225.678 30.3281 227.279 29.3906C228.9 28.4336 230.629 27.7012 232.465 27.1934C234.32 26.666 236.244 26.4023 238.236 26.4023C240.834 26.4023 243.344 26.8516 245.766 27.75C248.188 28.6289 250.375 29.918 252.328 31.6172L247.875 38.9414C246.645 37.6133 245.189 36.5977 243.51 35.8945C241.83 35.1719 240.072 34.8105 238.236 34.8105C236.381 34.8105 234.643 35.1621 233.021 35.8652C231.4 36.5684 229.984 37.5254 228.773 38.7363C227.562 39.9277 226.605 41.3438 225.902 42.9844C225.199 44.6055 224.848 46.334 224.848 48.1699C224.848 50.0059 225.199 51.7344 225.902 53.3555C226.605 54.957 227.562 56.3633 228.773 57.5742C229.984 58.7852 231.4 59.7422 233.021 60.4453C234.643 61.1484 236.381 61.5 238.236 61.5C240.072 61.5 241.83 61.1484 243.51 60.4453C245.189 59.7227 246.645 58.6973 247.875 57.3691L252.328 64.6934ZM285.58 53.0332C285.58 55.377 285.16 57.5645 284.32 59.5957C283.48 61.6074 282.338 63.3555 280.893 64.8398C279.447 66.3047 277.748 67.4668 275.795 68.3262C273.861 69.166 271.781 69.5859 269.555 69.5859C267.348 69.5859 265.268 69.166 263.314 68.3262C261.381 67.4668 259.682 66.3047 258.217 64.8398C256.771 63.3555 255.629 61.6074 254.789 59.5957C253.949 57.5645 253.529 55.377 253.529 53.0332C253.529 50.6504 253.949 48.4434 254.789 46.4121C255.629 44.3809 256.771 42.6328 258.217 41.168C259.682 39.6836 261.381 38.5215 263.314 37.6816C265.268 36.8418 267.348 36.4219 269.555 36.4219C271.781 36.4219 273.861 36.8223 275.795 37.623C277.748 38.4043 279.447 39.5273 280.893 40.9922C282.338 42.4375 283.48 44.1855 284.32 46.2363C285.16 48.2676 285.58 50.5332 285.58 53.0332ZM277.523 53.0332C277.523 51.7441 277.309 50.582 276.879 49.5469C276.469 48.4922 275.902 47.5938 275.18 46.8516C274.457 46.0898 273.607 45.5137 272.631 45.123C271.674 44.7129 270.648 44.5078 269.555 44.5078C268.461 44.5078 267.426 44.7129 266.449 45.123C265.492 45.5137 264.652 46.0898 263.93 46.8516C263.227 47.5938 262.67 48.4922 262.26 49.5469C261.85 50.582 261.645 51.7441 261.645 53.0332C261.645 54.2441 261.85 55.3672 262.26 56.4023C262.67 57.4375 263.227 58.3359 263.93 59.0977C264.652 59.8594 265.492 60.4648 266.449 60.9141C267.426 61.3438 268.461 61.5586 269.555 61.5586C270.648 61.5586 271.674 61.3535 272.631 60.9434C273.607 60.5332 274.457 59.957 275.18 59.2148C275.902 58.4727 276.469 57.5742 276.879 56.5195C277.309 55.4648 277.523 54.3027 277.523 53.0332ZM320.326 69H318.393L315.287 64.6934C314.525 65.377 313.715 66.0215 312.855 66.627C312.016 67.2129 311.127 67.7305 310.189 68.1797C309.252 68.6094 308.285 68.9512 307.289 69.2051C306.312 69.459 305.316 69.5859 304.301 69.5859C302.094 69.5859 300.014 69.1758 298.061 68.3555C296.127 67.5156 294.428 66.3633 292.963 64.8984C291.518 63.4141 290.375 61.666 289.535 59.6543C288.695 57.623 288.275 55.416 288.275 53.0332C288.275 50.6699 288.695 48.4727 289.535 46.4414C290.375 44.4102 291.518 42.6523 292.963 41.168C294.428 39.6836 296.127 38.5215 298.061 37.6816C300.014 36.8418 302.094 36.4219 304.301 36.4219C305.004 36.4219 305.727 36.4805 306.469 36.5977C307.23 36.7148 307.963 36.9102 308.666 37.1836C309.389 37.4375 310.062 37.7793 310.688 38.209C311.312 38.6387 311.84 39.166 312.27 39.791V25.1426H320.326V69ZM312.27 53.0332C312.27 51.9395 312.055 50.8848 311.625 49.8691C311.215 48.834 310.648 47.9258 309.926 47.1445C309.203 46.3438 308.354 45.709 307.377 45.2402C306.42 44.752 305.395 44.5078 304.301 44.5078C303.207 44.5078 302.172 44.7031 301.195 45.0938C300.238 45.4844 299.398 46.0508 298.676 46.793C297.973 47.5156 297.416 48.4043 297.006 49.459C296.596 50.5137 296.391 51.7051 296.391 53.0332C296.391 54.1855 296.596 55.2793 297.006 56.3145C297.416 57.3496 297.973 58.2578 298.676 59.0391C299.398 59.8203 300.238 60.4355 301.195 60.8848C302.172 61.334 303.207 61.5586 304.301 61.5586C305.395 61.5586 306.42 61.3242 307.377 60.8555C308.354 60.3672 309.203 59.7324 309.926 58.9512C310.648 58.1504 311.215 57.2422 311.625 56.2266C312.055 55.1914 312.27 54.127 312.27 53.0332ZM356.83 69H354.896L351.791 64.6934C351.029 65.377 350.219 66.0215 349.359 66.627C348.52 67.2129 347.631 67.7305 346.693 68.1797C345.756 68.6094 344.789 68.9512 343.793 69.2051C342.816 69.459 341.82 69.5859 340.805 69.5859C338.598 69.5859 336.518 69.2148 334.564 68.4727C332.631 67.7305 330.932 66.6562 329.467 65.25C328.021 63.8242 326.879 62.0859 326.039 60.0352C325.199 57.9844 324.779 55.6504 324.779 53.0332C324.779 50.5918 325.199 48.3555 326.039 46.3242C326.879 44.2734 328.021 42.5156 329.467 41.0508C330.932 39.5859 332.631 38.4531 334.564 37.6523C336.518 36.832 338.598 36.4219 340.805 36.4219C341.82 36.4219 342.826 36.5488 343.822 36.8027C344.818 37.0566 345.785 37.4082 346.723 37.8574C347.66 38.3066 348.549 38.834 349.389 39.4395C350.248 40.0449 351.049 40.6992 351.791 41.4023L354.896 37.6816H356.83V69ZM348.773 53.0332C348.773 51.9395 348.559 50.8848 348.129 49.8691C347.719 48.834 347.152 47.9258 346.43 47.1445C345.707 46.3438 344.857 45.709 343.881 45.2402C342.924 44.752 341.898 44.5078 340.805 44.5078C339.711 44.5078 338.676 44.6934 337.699 45.0645C336.742 45.4355 335.902 45.9824 335.18 46.7051C334.477 47.4277 333.92 48.3262 333.51 49.4004C333.1 50.4551 332.895 51.666 332.895 53.0332C332.895 54.4004 333.1 55.6211 333.51 56.6953C333.92 57.75 334.477 58.6387 335.18 59.3613C335.902 60.084 336.742 60.6309 337.699 61.002C338.676 61.373 339.711 61.5586 340.805 61.5586C341.898 61.5586 342.924 61.3242 343.881 60.8555C344.857 60.3672 345.707 59.7324 346.43 58.9512C347.152 58.1504 347.719 57.2422 348.129 56.2266C348.559 55.1914 348.773 54.127 348.773 53.0332Z" fill="#CD241C"/>
<path d="M72.0469 110.336C72.0469 111.93 71.8359 113.469 71.4141 114.953C71.0078 116.422 70.4297 117.805 69.6797 119.102C68.9297 120.383 68.0234 121.555 66.9609 122.617C65.8984 123.68 64.7266 124.594 63.4453 125.359C62.1641 126.109 60.7812 126.688 59.2969 127.094C57.8125 127.516 56.2734 127.727 54.6797 127.727C53.0859 127.727 51.5469 127.516 50.0625 127.094C48.5938 126.688 47.2109 126.109 45.9141 125.359C44.6328 124.594 43.4609 123.68 42.3984 122.617C41.3359 121.555 40.4219 120.383 39.6562 119.102C38.9062 117.805 38.3203 116.422 37.8984 114.953C37.4922 113.469 37.2891 111.93 37.2891 110.336C37.2891 108.742 37.4922 107.203 37.8984 105.719C38.3203 104.234 38.9062 102.852 39.6562 101.57C40.4219 100.289 41.3359 99.1172 42.3984 98.0547C43.4609 96.9922 44.6328 96.0859 45.9141 95.3359C47.2109 94.5859 48.5938 94.0078 50.0625 93.6016C51.5469 93.1797 53.0859 92.9688 54.6797 92.9688C56.2734 92.9688 57.8125 93.1797 59.2969 93.6016C60.7812 94.0078 62.1641 94.5859 63.4453 95.3359C64.7266 96.0859 65.8984 96.9922 66.9609 98.0547C68.0234 99.1172 68.9297 100.289 69.6797 101.57C70.4297 102.852 71.0078 104.234 71.4141 105.719C71.8359 107.203 72.0469 108.742 72.0469 110.336ZM65.3672 110.336C65.3672 108.867 65.0859 107.484 64.5234 106.188C63.9609 104.875 63.1953 103.742 62.2266 102.789C61.2734 101.82 60.1406 101.055 58.8281 100.492C57.5312 99.9297 56.1484 99.6484 54.6797 99.6484C53.1953 99.6484 51.8047 99.9297 50.5078 100.492C49.2109 101.055 48.0781 101.82 47.1094 102.789C46.1406 103.742 45.375 104.875 44.8125 106.188C44.25 107.484 43.9688 108.867 43.9688 110.336C43.9688 111.805 44.25 113.188 44.8125 114.484C45.375 115.766 46.1406 116.891 47.1094 117.859C48.0781 118.828 49.2109 119.594 50.5078 120.156C51.8047 120.719 53.1953 121 54.6797 121C56.1484 121 57.5312 120.719 58.8281 120.156C60.1406 119.594 61.2734 118.828 62.2266 117.859C63.1953 116.891 63.9609 115.766 64.5234 114.484C65.0859 113.188 65.3672 111.805 65.3672 110.336ZM83.9297 127H77.5312V108.273H74.4141V101.898H77.5312V100.703C77.5312 99.1562 77.8203 97.7031 78.3984 96.3438C78.9922 94.9844 79.7969 93.8047 80.8125 92.8047C81.8438 91.7891 83.0391 90.9922 84.3984 90.4141C85.7578 89.8203 87.2109 89.5234 88.7578 89.5234H93.5625V95.8984H88.7578C88.0703 95.8984 87.4297 96.0234 86.8359 96.2734C86.2578 96.5078 85.75 96.8438 85.3125 97.2812C84.8906 97.7031 84.5547 98.2109 84.3047 98.8047C84.0547 99.3828 83.9297 100.016 83.9297 100.703V101.898H91.7812V108.273H83.9297V127ZM102.961 127H96.5625V108.273H93.4453V101.898H96.5625V100.703C96.5625 99.1562 96.8516 97.7031 97.4297 96.3438C98.0234 94.9844 98.8281 93.8047 99.8438 92.8047C100.875 91.7891 102.07 90.9922 103.43 90.4141C104.789 89.8203 106.242 89.5234 107.789 89.5234H112.594V95.8984H107.789C107.102 95.8984 106.461 96.0234 105.867 96.2734C105.289 96.5078 104.781 96.8438 104.344 97.2812C103.922 97.7031 103.586 98.2109 103.336 98.8047C103.086 99.3828 102.961 100.016 102.961 100.703V101.898H110.812V108.273H102.961V127ZM122.344 95.0781C122.344 95.6719 122.227 96.2266 121.992 96.7422C121.773 97.2578 121.469 97.7109 121.078 98.1016C120.688 98.4766 120.227 98.7812 119.695 99.0156C119.18 99.2344 118.625 99.3438 118.031 99.3438C117.438 99.3438 116.875 99.2344 116.344 99.0156C115.828 98.7812 115.375 98.4766 114.984 98.1016C114.609 97.7109 114.305 97.2578 114.07 96.7422C113.852 96.2266 113.742 95.6719 113.742 95.0781C113.742 94.5 113.852 93.9531 114.07 93.4375C114.305 92.9062 114.609 92.4531 114.984 92.0781C115.375 91.6875 115.828 91.3828 116.344 91.1641C116.875 90.9297 117.438 90.8125 118.031 90.8125C118.625 90.8125 119.18 90.9297 119.695 91.1641C120.227 91.3828 120.688 91.6875 121.078 92.0781C121.469 92.4531 121.773 92.9062 121.992 93.4375C122.227 93.9531 122.344 94.5 122.344 95.0781ZM121.242 127H114.797V101.898H121.242V127ZM148.078 106.891L143.391 111.602C143.156 110.945 142.836 110.359 142.43 109.844C142.023 109.312 141.562 108.867 141.047 108.508C140.547 108.148 140 107.875 139.406 107.688C138.812 107.5 138.203 107.406 137.578 107.406C136.703 107.406 135.875 107.586 135.094 107.945C134.328 108.305 133.656 108.812 133.078 109.469C132.516 110.109 132.07 110.875 131.742 111.766C131.414 112.656 131.25 113.641 131.25 114.719C131.25 115.594 131.414 116.414 131.742 117.18C132.07 117.945 132.516 118.617 133.078 119.195C133.656 119.773 134.328 120.227 135.094 120.555C135.875 120.883 136.703 121.047 137.578 121.047C138.203 121.047 138.805 120.961 139.383 120.789C139.961 120.617 140.5 120.375 141 120.062C141.516 119.734 141.969 119.344 142.359 118.891C142.766 118.422 143.094 117.906 143.344 117.344L148.031 122.055C147.438 122.898 146.75 123.656 145.969 124.328C145.203 125 144.367 125.57 143.461 126.039C142.57 126.508 141.625 126.859 140.625 127.094C139.641 127.344 138.625 127.469 137.578 127.469C135.812 127.469 134.148 127.141 132.586 126.484C131.039 125.812 129.68 124.898 128.508 123.742C127.352 122.586 126.438 121.234 125.766 119.688C125.094 118.141 124.758 116.484 124.758 114.719C124.758 112.797 125.094 111 125.766 109.328C126.438 107.656 127.352 106.203 128.508 104.969C129.68 103.719 131.039 102.734 132.586 102.016C134.148 101.297 135.812 100.938 137.578 100.938C138.625 100.938 139.648 101.07 140.648 101.336C141.664 101.602 142.625 101.992 143.531 102.508C144.453 103.008 145.297 103.625 146.062 104.359C146.844 105.094 147.516 105.938 148.078 106.891ZM158.766 95.0781C158.766 95.6719 158.648 96.2266 158.414 96.7422C158.195 97.2578 157.891 97.7109 157.5 98.1016C157.109 98.4766 156.648 98.7812 156.117 99.0156C155.602 99.2344 155.047 99.3438 154.453 99.3438C153.859 99.3438 153.297 99.2344 152.766 99.0156C152.25 98.7812 151.797 98.4766 151.406 98.1016C151.031 97.7109 150.727 97.2578 150.492 96.7422C150.273 96.2266 150.164 95.6719 150.164 95.0781C150.164 94.5 150.273 93.9531 150.492 93.4375C150.727 92.9062 151.031 92.4531 151.406 92.0781C151.797 91.6875 152.25 91.3828 152.766 91.1641C153.297 90.9297 153.859 90.8125 154.453 90.8125C155.047 90.8125 155.602 90.9297 156.117 91.1641C156.648 91.3828 157.109 91.6875 157.5 92.0781C157.891 92.4531 158.195 92.9062 158.414 93.4375C158.648 93.9531 158.766 94.5 158.766 95.0781ZM157.664 127H151.219V101.898H157.664V127ZM186.867 127H185.32L182.836 123.555C182.227 124.102 181.578 124.617 180.891 125.102C180.219 125.57 179.508 125.984 178.758 126.344C178.008 126.688 177.234 126.961 176.438 127.164C175.656 127.367 174.859 127.469 174.047 127.469C172.281 127.469 170.617 127.172 169.055 126.578C167.508 125.984 166.148 125.125 164.977 124C163.82 122.859 162.906 121.469 162.234 119.828C161.562 118.188 161.227 116.32 161.227 114.227C161.227 112.273 161.562 110.484 162.234 108.859C162.906 107.219 163.82 105.812 164.977 104.641C166.148 103.469 167.508 102.562 169.055 101.922C170.617 101.266 172.281 100.938 174.047 100.938C174.859 100.938 175.664 101.039 176.461 101.242C177.258 101.445 178.031 101.727 178.781 102.086C179.531 102.445 180.242 102.867 180.914 103.352C181.602 103.836 182.242 104.359 182.836 104.922L185.32 101.945H186.867V127ZM180.422 114.227C180.422 113.352 180.25 112.508 179.906 111.695C179.578 110.867 179.125 110.141 178.547 109.516C177.969 108.875 177.289 108.367 176.508 107.992C175.742 107.602 174.922 107.406 174.047 107.406C173.172 107.406 172.344 107.555 171.562 107.852C170.797 108.148 170.125 108.586 169.547 109.164C168.984 109.742 168.539 110.461 168.211 111.32C167.883 112.164 167.719 113.133 167.719 114.227C167.719 115.32 167.883 116.297 168.211 117.156C168.539 118 168.984 118.711 169.547 119.289C170.125 119.867 170.797 120.305 171.562 120.602C172.344 120.898 173.172 121.047 174.047 121.047C174.922 121.047 175.742 120.859 176.508 120.484C177.289 120.094 177.969 119.586 178.547 118.961C179.125 118.32 179.578 117.594 179.906 116.781C180.25 115.953 180.422 115.102 180.422 114.227ZM198.211 127H191.766V91.9141H198.211V127ZM244.125 116.922C244.125 118.312 243.859 119.617 243.328 120.836C242.797 122.055 242.07 123.125 241.148 124.047C240.242 124.953 239.18 125.672 237.961 126.203C236.742 126.734 235.438 127 234.047 127H217.242V93.3906H234.047C235.438 93.3906 236.742 93.6562 237.961 94.1875C239.18 94.7188 240.242 95.4453 241.148 96.3672C242.07 97.2734 242.797 98.3359 243.328 99.5547C243.859 100.773 244.125 102.078 244.125 103.469C244.125 104.094 244.039 104.734 243.867 105.391C243.695 106.047 243.453 106.68 243.141 107.289C242.828 107.898 242.453 108.453 242.016 108.953C241.578 109.453 241.094 109.867 240.562 110.195C241.109 110.492 241.602 110.898 242.039 111.414C242.477 111.914 242.852 112.469 243.164 113.078C243.477 113.688 243.711 114.328 243.867 115C244.039 115.656 244.125 116.297 244.125 116.922ZM223.969 120.273H234.047C234.516 120.273 234.953 120.188 235.359 120.016C235.766 119.844 236.117 119.609 236.414 119.312C236.727 119 236.969 118.641 237.141 118.234C237.312 117.828 237.398 117.391 237.398 116.922C237.398 116.453 237.312 116.016 237.141 115.609C236.969 115.203 236.727 114.852 236.414 114.555C236.117 114.242 235.766 114 235.359 113.828C234.953 113.656 234.516 113.57 234.047 113.57H223.969V120.273ZM223.969 106.844H234.047C234.516 106.844 234.953 106.758 235.359 106.586C235.766 106.414 236.117 106.18 236.414 105.883C236.727 105.57 236.969 105.211 237.141 104.805C237.312 104.383 237.398 103.938 237.398 103.469C237.398 103 237.312 102.562 237.141 102.156C236.969 101.75 236.727 101.398 236.414 101.102C236.117 100.789 235.766 100.547 235.359 100.375C234.953 100.203 234.516 100.117 234.047 100.117H223.969V106.844ZM254.977 127H248.531V91.9141H254.977V127ZM284.133 114.227C284.133 116.102 283.797 117.852 283.125 119.477C282.453 121.086 281.539 122.484 280.383 123.672C279.227 124.844 277.867 125.773 276.305 126.461C274.758 127.133 273.094 127.469 271.312 127.469C269.547 127.469 267.883 127.133 266.32 126.461C264.773 125.773 263.414 124.844 262.242 123.672C261.086 122.484 260.172 121.086 259.5 119.477C258.828 117.852 258.492 116.102 258.492 114.227C258.492 112.32 258.828 110.555 259.5 108.93C260.172 107.305 261.086 105.906 262.242 104.734C263.414 103.547 264.773 102.617 266.32 101.945C267.883 101.273 269.547 100.938 271.312 100.938C273.094 100.938 274.758 101.258 276.305 101.898C277.867 102.523 279.227 103.422 280.383 104.594C281.539 105.75 282.453 107.148 283.125 108.789C283.797 110.414 284.133 112.227 284.133 114.227ZM277.688 114.227C277.688 113.195 277.516 112.266 277.172 111.438C276.844 110.594 276.391 109.875 275.812 109.281C275.234 108.672 274.555 108.211 273.773 107.898C273.008 107.57 272.188 107.406 271.312 107.406C270.438 107.406 269.609 107.57 268.828 107.898C268.062 108.211 267.391 108.672 266.812 109.281C266.25 109.875 265.805 110.594 265.477 111.438C265.148 112.266 264.984 113.195 264.984 114.227C264.984 115.195 265.148 116.094 265.477 116.922C265.805 117.75 266.25 118.469 266.812 119.078C267.391 119.688 268.062 120.172 268.828 120.531C269.609 120.875 270.438 121.047 271.312 121.047C272.188 121.047 273.008 120.883 273.773 120.555C274.555 120.227 275.234 119.766 275.812 119.172C276.391 118.578 276.844 117.859 277.172 117.016C277.516 116.172 277.688 115.242 277.688 114.227ZM305.531 114.227C305.531 113.352 305.359 112.508 305.016 111.695C304.688 110.867 304.234 110.141 303.656 109.516C303.078 108.875 302.398 108.367 301.617 107.992C300.852 107.602 300.031 107.406 299.156 107.406C298.281 107.406 297.453 107.555 296.672 107.852C295.906 108.148 295.234 108.586 294.656 109.164C294.094 109.742 293.648 110.461 293.32 111.32C292.992 112.164 292.828 113.133 292.828 114.227C292.828 115.273 292.992 116.219 293.32 117.062C293.648 117.891 294.094 118.602 294.656 119.195C295.234 119.789 295.906 120.25 296.672 120.578C297.453 120.891 298.281 121.047 299.156 121.047C300.031 121.047 300.852 120.859 301.617 120.484C302.398 120.094 303.078 119.586 303.656 118.961C304.234 118.32 304.688 117.594 305.016 116.781C305.359 115.953 305.531 115.102 305.531 114.227ZM311.977 123.836C311.977 125.602 311.641 127.258 310.969 128.805C310.297 130.352 309.375 131.703 308.203 132.859C307.047 134.016 305.688 134.93 304.125 135.602C302.578 136.273 300.922 136.609 299.156 136.609L295.945 136.562V130.164L299.109 130.211C300.109 130.211 300.961 130.078 301.664 129.812C302.367 129.562 302.961 129.211 303.445 128.758C303.93 128.32 304.312 127.812 304.594 127.234C304.891 126.656 305.125 126.047 305.297 125.406C305.047 125.812 304.688 126.148 304.219 126.414C303.75 126.664 303.227 126.867 302.648 127.023C302.086 127.195 301.492 127.312 300.867 127.375C300.258 127.438 299.688 127.469 299.156 127.469C297.391 127.469 295.727 127.164 294.164 126.555C292.617 125.945 291.258 125.078 290.086 123.953C288.93 122.812 288.016 121.422 287.344 119.781C286.672 118.141 286.336 116.289 286.336 114.227C286.336 112.336 286.672 110.578 287.344 108.953C288.016 107.328 288.93 105.922 290.086 104.734C291.258 103.547 292.617 102.617 294.164 101.945C295.727 101.273 297.391 100.938 299.156 100.938C299.969 100.938 300.773 101.039 301.57 101.242C302.367 101.445 303.141 101.727 303.891 102.086C304.641 102.445 305.352 102.867 306.023 103.352C306.711 103.836 307.352 104.359 307.945 104.922L310.43 101.945H311.977V123.836Z" fill="black"/>
</g>
<defs>
<clipPath id="clip0">
<rect width="375" height="150" fill="white"/>
</clipPath>
</defs>
</svg>
