<svg width="310" height="95" viewBox="0 0 310 95" fill="none" xmlns="http://www.w3.org/2000/svg">
<g clip-path="url(#clip0)">
<path d="M0.244141 15.5078C0.244141 14.0013 0.531901 12.5879 1.10742 11.2676C1.68294 9.94727 2.46159 8.79622 3.44336 7.81445C4.44206 6.81576 5.60156 6.02865 6.92188 5.45312C8.24219 4.8776 9.6556 4.58984 11.1621 4.58984H27.8691V11.877H11.1621C10.6543 11.877 10.1803 11.9701 9.74023 12.1562C9.30013 12.3424 8.91081 12.6048 8.57227 12.9434C8.25065 13.265 7.99674 13.6458 7.81055 14.0859C7.62435 14.526 7.53125 15 7.53125 15.5078C7.53125 16.0156 7.62435 16.498 7.81055 16.9551C7.99674 17.3952 8.25065 17.7845 8.57227 18.123C8.91081 18.4447 9.30013 18.6986 9.74023 18.8848C10.1803 19.071 10.6543 19.1641 11.1621 19.1641H18.4492C19.9557 19.1641 21.3691 19.4518 22.6895 20.0273C24.0267 20.5859 25.1862 21.3646 26.168 22.3633C27.1667 23.3451 27.9453 24.5046 28.5039 25.8418C29.0794 27.1621 29.3672 28.5755 29.3672 30.082C29.3672 31.5885 29.0794 33.002 28.5039 34.3223C27.9453 35.6426 27.1667 36.8021 26.168 37.8008C25.1862 38.7826 24.0267 39.5612 22.6895 40.1367C21.3691 40.7122 19.9557 41 18.4492 41H2.27539V33.7129H18.4492C18.957 33.7129 19.431 33.6198 19.8711 33.4336C20.3112 33.2474 20.6921 32.9935 21.0137 32.6719C21.3522 32.3333 21.6146 31.944 21.8008 31.5039C21.987 31.0638 22.0801 30.5898 22.0801 30.082C22.0801 29.5742 21.987 29.1003 21.8008 28.6602C21.6146 28.2201 21.3522 27.8392 21.0137 27.5176C20.6921 27.179 20.3112 26.9167 19.8711 26.7305C19.431 26.5443 18.957 26.4512 18.4492 26.4512H11.1621C9.6556 26.4512 8.24219 26.1634 6.92188 25.5879C5.60156 25.0124 4.44206 24.2337 3.44336 23.252C2.46159 22.2533 1.68294 21.0938 1.10742 19.7734C0.531901 18.4362 0.244141 17.0143 0.244141 15.5078ZM57.109 27.1621C57.109 29.1934 56.7451 31.0892 56.0172 32.8496C55.2893 34.5931 54.2991 36.1081 53.0465 37.3945C51.7939 38.6641 50.3212 39.6712 48.6285 40.416C46.9527 41.1439 45.15 41.5078 43.2203 41.5078C41.3076 41.5078 39.5048 41.1439 37.8121 40.416C36.1363 39.6712 34.6637 38.6641 33.3941 37.3945C32.1415 36.1081 31.1513 34.5931 30.4234 32.8496C29.6956 31.0892 29.3316 29.1934 29.3316 27.1621C29.3316 25.097 29.6956 23.1842 30.4234 21.4238C31.1513 19.6634 32.1415 18.1484 33.3941 16.8789C34.6637 15.5924 36.1363 14.5853 37.8121 13.8574C39.5048 13.1296 41.3076 12.7656 43.2203 12.7656C45.15 12.7656 46.9527 13.1126 48.6285 13.8066C50.3212 14.4837 51.7939 15.457 53.0465 16.7266C54.2991 17.9792 55.2893 19.4941 56.0172 21.2715C56.7451 23.0319 57.109 24.9954 57.109 27.1621ZM50.1266 27.1621C50.1266 26.0449 49.9404 25.0378 49.568 24.1406C49.2125 23.2266 48.7216 22.4479 48.0953 21.8047C47.469 21.1445 46.7327 20.6452 45.8863 20.3066C45.0569 19.9512 44.1682 19.7734 43.2203 19.7734C42.2724 19.7734 41.3753 19.9512 40.5289 20.3066C39.6995 20.6452 38.9716 21.1445 38.3453 21.8047C37.7359 22.4479 37.2535 23.2266 36.898 24.1406C36.5426 25.0378 36.3648 26.0449 36.3648 27.1621C36.3648 28.2116 36.5426 29.1849 36.898 30.082C37.2535 30.9792 37.7359 31.7578 38.3453 32.418C38.9716 33.0781 39.6995 33.6029 40.5289 33.9922C41.3753 34.3646 42.2724 34.5508 43.2203 34.5508C44.1682 34.5508 45.0569 34.373 45.8863 34.0176C46.7327 33.6621 47.469 33.1628 48.0953 32.5195C48.7216 31.8763 49.2125 31.0977 49.568 30.1836C49.9404 29.2695 50.1266 28.2624 50.1266 27.1621ZM65.2746 41H58.343V13.8066H60.0187L62.3039 17.0312C63.4211 16.0156 64.6906 15.237 66.1125 14.6953C67.5344 14.1367 69.007 13.8574 70.5305 13.8574H76.6496V20.7637H70.5305C69.8026 20.7637 69.1171 20.8991 68.4738 21.1699C67.8306 21.4408 67.272 21.8132 66.798 22.2871C66.3241 22.7611 65.9517 23.3197 65.6809 23.9629C65.41 24.6061 65.2746 25.2917 65.2746 26.0195V41ZM87.5828 34.3477C87.8536 34.4323 88.1245 34.4915 88.3953 34.5254C88.6661 34.5423 88.937 34.5508 89.2078 34.5508C89.8849 34.5508 90.5366 34.4577 91.1629 34.2715C91.7892 34.0853 92.3732 33.8229 92.9148 33.4844C93.4734 33.1289 93.9643 32.7057 94.3875 32.2148C94.8276 31.707 95.1831 31.1484 95.4539 30.5391L100.532 35.6426C99.8888 36.5566 99.144 37.3776 98.2977 38.1055C97.4682 38.8333 96.5626 39.4512 95.5809 39.959C94.616 40.4668 93.5919 40.8477 92.5086 41.1016C91.4422 41.3724 90.3419 41.5078 89.2078 41.5078C87.295 41.5078 85.4923 41.1523 83.7996 40.4414C82.1238 39.7305 80.6512 38.7402 79.3816 37.4707C78.129 36.2012 77.1388 34.6947 76.4109 32.9512C75.6831 31.1908 75.3191 29.2611 75.3191 27.1621C75.3191 25.0124 75.6831 23.0488 76.4109 21.2715C77.1388 19.4941 78.129 17.9792 79.3816 16.7266C80.6512 15.474 82.1238 14.5007 83.7996 13.8066C85.4923 13.1126 87.295 12.7656 89.2078 12.7656C90.3419 12.7656 91.4506 12.901 92.534 13.1719C93.6173 13.4427 94.6414 13.832 95.6062 14.3398C96.588 14.8477 97.5021 15.474 98.3484 16.2188C99.1948 16.9466 99.9396 17.7676 100.583 18.6816L87.5828 34.3477ZM91.1375 20.0527C90.8159 19.9342 90.4943 19.8581 90.1727 19.8242C89.868 19.7904 89.5464 19.7734 89.2078 19.7734C88.2599 19.7734 87.3628 19.9512 86.5164 20.3066C85.687 20.6452 84.9591 21.1361 84.3328 21.7793C83.7234 22.4225 83.241 23.2012 82.8855 24.1152C82.5301 25.0124 82.3523 26.028 82.3523 27.1621C82.3523 27.416 82.3608 27.7038 82.3777 28.0254C82.4116 28.347 82.4539 28.6771 82.5047 29.0156C82.5724 29.3372 82.6486 29.6504 82.7332 29.9551C82.8178 30.2598 82.9279 30.5306 83.0633 30.7676L91.1375 20.0527ZM108.469 41H101.487V2.99023H108.469V41ZM118.158 41H111.176V2.99023H118.158V41ZM129.041 6.41797C129.041 7.0612 128.914 7.66211 128.66 8.2207C128.423 8.7793 128.093 9.27018 127.67 9.69336C127.246 10.0996 126.747 10.4297 126.171 10.6836C125.613 10.9206 125.012 11.0391 124.369 11.0391C123.726 11.0391 123.116 10.9206 122.541 10.6836C121.982 10.4297 121.491 10.0996 121.068 9.69336C120.662 9.27018 120.332 8.7793 120.078 8.2207C119.841 7.66211 119.722 7.0612 119.722 6.41797C119.722 5.79167 119.841 5.19922 120.078 4.64062C120.332 4.0651 120.662 3.57422 121.068 3.16797C121.491 2.74479 121.982 2.41471 122.541 2.17773C123.116 1.92383 123.726 1.79688 124.369 1.79688C125.012 1.79688 125.613 1.92383 126.171 2.17773C126.747 2.41471 127.246 2.74479 127.67 3.16797C128.093 3.57422 128.423 4.0651 128.66 4.64062C128.914 5.19922 129.041 5.79167 129.041 6.41797ZM127.847 41H120.865V13.8066H127.847V41ZM137.486 41H130.554V13.8066H132.23L134.515 16.4473C135.632 15.4316 136.893 14.653 138.298 14.1113C139.72 13.5527 141.201 13.2734 142.741 13.2734C144.4 13.2734 145.966 13.5951 147.439 14.2383C148.911 14.8646 150.198 15.7363 151.298 16.8535C152.398 17.9538 153.262 19.2487 153.888 20.7383C154.531 22.2109 154.853 23.7852 154.853 25.4609V41H147.921V25.4609C147.921 24.75 147.786 24.0814 147.515 23.4551C147.244 22.8118 146.872 22.2533 146.398 21.7793C145.924 21.3053 145.374 20.9329 144.747 20.6621C144.121 20.3913 143.452 20.2559 142.741 20.2559C142.014 20.2559 141.328 20.3913 140.685 20.6621C140.042 20.9329 139.483 21.3053 139.009 21.7793C138.535 22.2533 138.163 22.8118 137.892 23.4551C137.621 24.0814 137.486 24.75 137.486 25.4609V41ZM183.534 41H181.858L179.167 37.2676C178.507 37.86 177.804 38.4186 177.059 38.9434C176.332 39.4512 175.561 39.8997 174.749 40.2891C173.936 40.6615 173.098 40.9577 172.235 41.1777C171.389 41.3978 170.526 41.5078 169.645 41.5078C167.733 41.5078 165.93 41.1862 164.237 40.543C162.561 39.8997 161.089 38.9688 159.819 37.75C158.567 36.5143 157.576 35.0078 156.848 33.2305C156.121 31.4531 155.757 29.4303 155.757 27.1621C155.757 25.0462 156.121 23.1081 156.848 21.3477C157.576 19.5703 158.567 18.0469 159.819 16.7773C161.089 15.5078 162.561 14.526 164.237 13.832C165.93 13.1211 167.733 12.7656 169.645 12.7656C170.526 12.7656 171.397 12.8757 172.261 13.0957C173.124 13.3158 173.962 13.6204 174.774 14.0098C175.587 14.3991 176.357 14.8561 177.085 15.3809C177.83 15.9056 178.524 16.4727 179.167 17.082L181.858 13.8574H183.534V41ZM176.552 27.1621C176.552 26.2142 176.365 25.3001 175.993 24.4199C175.637 23.5228 175.147 22.7357 174.52 22.0586C173.894 21.3646 173.158 20.8145 172.311 20.4082C171.482 19.985 170.593 19.7734 169.645 19.7734C168.697 19.7734 167.8 19.9342 166.954 20.2559C166.124 20.5775 165.397 21.0514 164.77 21.6777C164.161 22.304 163.679 23.0827 163.323 24.0137C162.968 24.9277 162.79 25.9772 162.79 27.1621C162.79 28.347 162.968 29.4049 163.323 30.3359C163.679 31.25 164.161 32.0202 164.77 32.6465C165.397 33.2728 166.124 33.7467 166.954 34.0684C167.8 34.39 168.697 34.5508 169.645 34.5508C170.593 34.5508 171.482 34.3477 172.311 33.9414C173.158 33.5182 173.894 32.9681 174.52 32.291C175.147 31.597 175.637 30.8099 175.993 29.9297C176.365 29.0326 176.552 28.11 176.552 27.1621Z" fill="#1642BB"/>
<path d="M228.023 37.2676C226.331 38.7233 224.435 39.8405 222.336 40.6191C220.237 41.3978 218.062 41.7871 215.811 41.7871C214.084 41.7871 212.417 41.5586 210.809 41.1016C209.217 40.6615 207.719 40.0352 206.314 39.2227C204.926 38.3932 203.657 37.403 202.506 36.252C201.355 35.1009 200.365 33.8314 199.535 32.4434C198.723 31.0384 198.088 29.5404 197.631 27.9492C197.191 26.3411 196.971 24.6738 196.971 22.9473C196.971 21.2207 197.191 19.5534 197.631 17.9453C198.088 16.3372 198.723 14.8392 199.535 13.4512C200.365 12.0462 201.355 10.7682 202.506 9.61719C203.657 8.46615 204.926 7.48438 206.314 6.67188C207.719 5.84245 209.217 5.20768 210.809 4.76758C212.417 4.31055 214.084 4.08203 215.811 4.08203C218.062 4.08203 220.237 4.47135 222.336 5.25C224.435 6.01172 226.331 7.12891 228.023 8.60156L224.164 14.9492C223.098 13.7982 221.837 12.918 220.381 12.3086C218.925 11.6823 217.402 11.3691 215.811 11.3691C214.202 11.3691 212.696 11.6738 211.291 12.2832C209.886 12.8926 208.659 13.722 207.609 14.7715C206.56 15.804 205.73 17.0312 205.121 18.4531C204.512 19.8581 204.207 21.3561 204.207 22.9473C204.207 24.5384 204.512 26.0365 205.121 27.4414C205.73 28.8294 206.56 30.0482 207.609 31.0977C208.659 32.1471 209.886 32.9766 211.291 33.5859C212.696 34.1953 214.202 34.5 215.811 34.5C217.402 34.5 218.925 34.1953 220.381 33.5859C221.837 32.9596 223.098 32.071 224.164 30.9199L228.023 37.2676ZM254.242 27.1621C254.242 29.1934 253.878 31.0892 253.15 32.8496C252.422 34.5931 251.432 36.1081 250.179 37.3945C248.927 38.6641 247.454 39.6712 245.761 40.416C244.086 41.1439 242.283 41.5078 240.353 41.5078C238.44 41.5078 236.638 41.1439 234.945 40.416C233.269 39.6712 231.796 38.6641 230.527 37.3945C229.274 36.1081 228.284 34.5931 227.556 32.8496C226.828 31.0892 226.464 29.1934 226.464 27.1621C226.464 25.097 226.828 23.1842 227.556 21.4238C228.284 19.6634 229.274 18.1484 230.527 16.8789C231.796 15.5924 233.269 14.5853 234.945 13.8574C236.638 13.1296 238.44 12.7656 240.353 12.7656C242.283 12.7656 244.086 13.1126 245.761 13.8066C247.454 14.4837 248.927 15.457 250.179 16.7266C251.432 17.9792 252.422 19.4941 253.15 21.2715C253.878 23.0319 254.242 24.9954 254.242 27.1621ZM247.259 27.1621C247.259 26.0449 247.073 25.0378 246.701 24.1406C246.345 23.2266 245.854 22.4479 245.228 21.8047C244.602 21.1445 243.865 20.6452 243.019 20.3066C242.19 19.9512 241.301 19.7734 240.353 19.7734C239.405 19.7734 238.508 19.9512 237.662 20.3066C236.832 20.6452 236.104 21.1445 235.478 21.8047C234.869 22.4479 234.386 23.2266 234.031 24.1406C233.675 25.0378 233.498 26.0449 233.498 27.1621C233.498 28.2116 233.675 29.1849 234.031 30.082C234.386 30.9792 234.869 31.7578 235.478 32.418C236.104 33.0781 236.832 33.6029 237.662 33.9922C238.508 34.3646 239.405 34.5508 240.353 34.5508C241.301 34.5508 242.19 34.373 243.019 34.0176C243.865 33.6621 244.602 33.1628 245.228 32.5195C245.854 31.8763 246.345 31.0977 246.701 30.1836C247.073 29.2695 247.259 28.2624 247.259 27.1621ZM281.755 41H280.079L277.388 37.2676C276.728 37.86 276.025 38.4186 275.28 38.9434C274.553 39.4512 273.782 39.8997 272.97 40.2891C272.157 40.6615 271.32 40.9577 270.456 41.1777C269.61 41.3978 268.747 41.5078 267.866 41.5078C265.954 41.5078 264.151 41.1523 262.458 40.4414C260.782 39.7135 259.31 38.7148 258.04 37.4453C256.788 36.1589 255.797 34.6439 255.07 32.9004C254.342 31.14 253.978 29.2272 253.978 27.1621C253.978 25.1139 254.342 23.2096 255.07 21.4492C255.797 19.6888 256.788 18.1654 258.04 16.8789C259.31 15.5924 260.782 14.5853 262.458 13.8574C264.151 13.1296 265.954 12.7656 267.866 12.7656C268.476 12.7656 269.102 12.8164 269.745 12.918C270.405 13.0195 271.04 13.1888 271.65 13.4258C272.276 13.6458 272.86 13.9421 273.402 14.3145C273.943 14.6868 274.4 15.1439 274.773 15.6855V2.99023H281.755V41ZM274.773 27.1621C274.773 26.2142 274.586 25.3001 274.214 24.4199C273.859 23.5228 273.368 22.7357 272.741 22.0586C272.115 21.3646 271.379 20.8145 270.532 20.4082C269.703 19.985 268.814 19.7734 267.866 19.7734C266.918 19.7734 266.021 19.9427 265.175 20.2812C264.346 20.6198 263.618 21.1107 262.991 21.7539C262.382 22.3802 261.9 23.1504 261.544 24.0645C261.189 24.9785 261.011 26.0111 261.011 27.1621C261.011 28.1608 261.189 29.1087 261.544 30.0059C261.9 30.903 262.382 31.6901 262.991 32.3672C263.618 33.0443 264.346 33.5775 265.175 33.9668C266.021 34.3561 266.918 34.5508 267.866 34.5508C268.814 34.5508 269.703 34.3477 270.532 33.9414C271.379 33.5182 272.115 32.9681 272.741 32.291C273.368 31.597 273.859 30.8099 274.214 29.9297C274.586 29.0326 274.773 28.11 274.773 27.1621ZM310.792 41H309.116L306.425 37.2676C305.764 37.86 305.062 38.4186 304.317 38.9434C303.589 39.4512 302.819 39.8997 302.007 40.2891C301.194 40.6615 300.356 40.9577 299.493 41.1777C298.647 41.3978 297.783 41.5078 296.903 41.5078C294.99 41.5078 293.188 41.1862 291.495 40.543C289.819 39.8997 288.346 38.9688 287.077 37.75C285.824 36.5143 284.834 35.0078 284.106 33.2305C283.378 31.4531 283.014 29.4303 283.014 27.1621C283.014 25.0462 283.378 23.1081 284.106 21.3477C284.834 19.5703 285.824 18.0469 287.077 16.7773C288.346 15.5078 289.819 14.526 291.495 13.832C293.188 13.1211 294.99 12.7656 296.903 12.7656C297.783 12.7656 298.655 12.8757 299.518 13.0957C300.382 13.3158 301.22 13.6204 302.032 14.0098C302.845 14.3991 303.615 14.8561 304.343 15.3809C305.087 15.9056 305.781 16.4727 306.425 17.082L309.116 13.8574H310.792V41ZM303.809 27.1621C303.809 26.2142 303.623 25.3001 303.251 24.4199C302.895 23.5228 302.404 22.7357 301.778 22.0586C301.152 21.3646 300.416 20.8145 299.569 20.4082C298.74 19.985 297.851 19.7734 296.903 19.7734C295.955 19.7734 295.058 19.9342 294.212 20.2559C293.382 20.5775 292.654 21.0514 292.028 21.6777C291.419 22.304 290.936 23.0827 290.581 24.0137C290.225 24.9277 290.048 25.9772 290.048 27.1621C290.048 28.347 290.225 29.4049 290.581 30.3359C290.936 31.25 291.419 32.0202 292.028 32.6465C292.654 33.2728 293.382 33.7467 294.212 34.0684C295.058 34.39 295.955 34.5508 296.903 34.5508C297.851 34.5508 298.74 34.3477 299.569 33.9414C300.416 33.5182 301.152 32.9681 301.778 32.291C302.404 31.597 302.895 30.8099 303.251 29.9297C303.623 29.0326 303.809 28.11 303.809 27.1621Z" fill="#CD241C"/>
<path d="M57.0469 68.3359C57.0469 69.9297 56.8359 71.4688 56.4141 72.9531C56.0078 74.4219 55.4297 75.8047 54.6797 77.1016C53.9297 78.3828 53.0234 79.5547 51.9609 80.6172C50.8984 81.6797 49.7266 82.5938 48.4453 83.3594C47.1641 84.1094 45.7812 84.6875 44.2969 85.0938C42.8125 85.5156 41.2734 85.7266 39.6797 85.7266C38.0859 85.7266 36.5469 85.5156 35.0625 85.0938C33.5938 84.6875 32.2109 84.1094 30.9141 83.3594C29.6328 82.5938 28.4609 81.6797 27.3984 80.6172C26.3359 79.5547 25.4219 78.3828 24.6562 77.1016C23.9062 75.8047 23.3203 74.4219 22.8984 72.9531C22.4922 71.4688 22.2891 69.9297 22.2891 68.3359C22.2891 66.7422 22.4922 65.2031 22.8984 63.7188C23.3203 62.2344 23.9062 60.8516 24.6562 59.5703C25.4219 58.2891 26.3359 57.1172 27.3984 56.0547C28.4609 54.9922 29.6328 54.0859 30.9141 53.3359C32.2109 52.5859 33.5938 52.0078 35.0625 51.6016C36.5469 51.1797 38.0859 50.9688 39.6797 50.9688C41.2734 50.9688 42.8125 51.1797 44.2969 51.6016C45.7812 52.0078 47.1641 52.5859 48.4453 53.3359C49.7266 54.0859 50.8984 54.9922 51.9609 56.0547C53.0234 57.1172 53.9297 58.2891 54.6797 59.5703C55.4297 60.8516 56.0078 62.2344 56.4141 63.7188C56.8359 65.2031 57.0469 66.7422 57.0469 68.3359ZM50.3672 68.3359C50.3672 66.8672 50.0859 65.4844 49.5234 64.1875C48.9609 62.875 48.1953 61.7422 47.2266 60.7891C46.2734 59.8203 45.1406 59.0547 43.8281 58.4922C42.5312 57.9297 41.1484 57.6484 39.6797 57.6484C38.1953 57.6484 36.8047 57.9297 35.5078 58.4922C34.2109 59.0547 33.0781 59.8203 32.1094 60.7891C31.1406 61.7422 30.375 62.875 29.8125 64.1875C29.25 65.4844 28.9688 66.8672 28.9688 68.3359C28.9688 69.8047 29.25 71.1875 29.8125 72.4844C30.375 73.7656 31.1406 74.8906 32.1094 75.8594C33.0781 76.8281 34.2109 77.5938 35.5078 78.1562C36.8047 78.7188 38.1953 79 39.6797 79C41.1484 79 42.5312 78.7188 43.8281 78.1562C45.1406 77.5938 46.2734 76.8281 47.2266 75.8594C48.1953 74.8906 48.9609 73.7656 49.5234 72.4844C50.0859 71.1875 50.3672 69.8047 50.3672 68.3359ZM68.9297 85H62.5312V66.2734H59.4141V59.8984H62.5312V58.7031C62.5312 57.1562 62.8203 55.7031 63.3984 54.3438C63.9922 52.9844 64.7969 51.8047 65.8125 50.8047C66.8438 49.7891 68.0391 48.9922 69.3984 48.4141C70.7578 47.8203 72.2109 47.5234 73.7578 47.5234H78.5625V53.8984H73.7578C73.0703 53.8984 72.4297 54.0234 71.8359 54.2734C71.2578 54.5078 70.75 54.8438 70.3125 55.2812C69.8906 55.7031 69.5547 56.2109 69.3047 56.8047C69.0547 57.3828 68.9297 58.0156 68.9297 58.7031V59.8984H76.7812V66.2734H68.9297V85ZM87.9609 85H81.5625V66.2734H78.4453V59.8984H81.5625V58.7031C81.5625 57.1562 81.8516 55.7031 82.4297 54.3438C83.0234 52.9844 83.8281 51.8047 84.8438 50.8047C85.875 49.7891 87.0703 48.9922 88.4297 48.4141C89.7891 47.8203 91.2422 47.5234 92.7891 47.5234H97.5938V53.8984H92.7891C92.1016 53.8984 91.4609 54.0234 90.8672 54.2734C90.2891 54.5078 89.7812 54.8438 89.3438 55.2812C88.9219 55.7031 88.5859 56.2109 88.3359 56.8047C88.0859 57.3828 87.9609 58.0156 87.9609 58.7031V59.8984H95.8125V66.2734H87.9609V85ZM107.344 53.0781C107.344 53.6719 107.227 54.2266 106.992 54.7422C106.773 55.2578 106.469 55.7109 106.078 56.1016C105.688 56.4766 105.227 56.7812 104.695 57.0156C104.18 57.2344 103.625 57.3438 103.031 57.3438C102.438 57.3438 101.875 57.2344 101.344 57.0156C100.828 56.7812 100.375 56.4766 99.9844 56.1016C99.6094 55.7109 99.3047 55.2578 99.0703 54.7422C98.8516 54.2266 98.7422 53.6719 98.7422 53.0781C98.7422 52.5 98.8516 51.9531 99.0703 51.4375C99.3047 50.9062 99.6094 50.4531 99.9844 50.0781C100.375 49.6875 100.828 49.3828 101.344 49.1641C101.875 48.9297 102.438 48.8125 103.031 48.8125C103.625 48.8125 104.18 48.9297 104.695 49.1641C105.227 49.3828 105.688 49.6875 106.078 50.0781C106.469 50.4531 106.773 50.9062 106.992 51.4375C107.227 51.9531 107.344 52.5 107.344 53.0781ZM106.242 85H99.7969V59.8984H106.242V85ZM133.078 64.8906L128.391 69.6016C128.156 68.9453 127.836 68.3594 127.43 67.8438C127.023 67.3125 126.562 66.8672 126.047 66.5078C125.547 66.1484 125 65.875 124.406 65.6875C123.812 65.5 123.203 65.4062 122.578 65.4062C121.703 65.4062 120.875 65.5859 120.094 65.9453C119.328 66.3047 118.656 66.8125 118.078 67.4688C117.516 68.1094 117.07 68.875 116.742 69.7656C116.414 70.6562 116.25 71.6406 116.25 72.7188C116.25 73.5938 116.414 74.4141 116.742 75.1797C117.07 75.9453 117.516 76.6172 118.078 77.1953C118.656 77.7734 119.328 78.2266 120.094 78.5547C120.875 78.8828 121.703 79.0469 122.578 79.0469C123.203 79.0469 123.805 78.9609 124.383 78.7891C124.961 78.6172 125.5 78.375 126 78.0625C126.516 77.7344 126.969 77.3438 127.359 76.8906C127.766 76.4219 128.094 75.9062 128.344 75.3438L133.031 80.0547C132.438 80.8984 131.75 81.6562 130.969 82.3281C130.203 83 129.367 83.5703 128.461 84.0391C127.57 84.5078 126.625 84.8594 125.625 85.0938C124.641 85.3438 123.625 85.4688 122.578 85.4688C120.812 85.4688 119.148 85.1406 117.586 84.4844C116.039 83.8125 114.68 82.8984 113.508 81.7422C112.352 80.5859 111.438 79.2344 110.766 77.6875C110.094 76.1406 109.758 74.4844 109.758 72.7188C109.758 70.7969 110.094 69 110.766 67.3281C111.438 65.6562 112.352 64.2031 113.508 62.9688C114.68 61.7188 116.039 60.7344 117.586 60.0156C119.148 59.2969 120.812 58.9375 122.578 58.9375C123.625 58.9375 124.648 59.0703 125.648 59.3359C126.664 59.6016 127.625 59.9922 128.531 60.5078C129.453 61.0078 130.297 61.625 131.062 62.3594C131.844 63.0938 132.516 63.9375 133.078 64.8906ZM143.766 53.0781C143.766 53.6719 143.648 54.2266 143.414 54.7422C143.195 55.2578 142.891 55.7109 142.5 56.1016C142.109 56.4766 141.648 56.7812 141.117 57.0156C140.602 57.2344 140.047 57.3438 139.453 57.3438C138.859 57.3438 138.297 57.2344 137.766 57.0156C137.25 56.7812 136.797 56.4766 136.406 56.1016C136.031 55.7109 135.727 55.2578 135.492 54.7422C135.273 54.2266 135.164 53.6719 135.164 53.0781C135.164 52.5 135.273 51.9531 135.492 51.4375C135.727 50.9062 136.031 50.4531 136.406 50.0781C136.797 49.6875 137.25 49.3828 137.766 49.1641C138.297 48.9297 138.859 48.8125 139.453 48.8125C140.047 48.8125 140.602 48.9297 141.117 49.1641C141.648 49.3828 142.109 49.6875 142.5 50.0781C142.891 50.4531 143.195 50.9062 143.414 51.4375C143.648 51.9531 143.766 52.5 143.766 53.0781ZM142.664 85H136.219V59.8984H142.664V85ZM171.867 85H170.32L167.836 81.5547C167.227 82.1016 166.578 82.6172 165.891 83.1016C165.219 83.5703 164.508 83.9844 163.758 84.3438C163.008 84.6875 162.234 84.9609 161.438 85.1641C160.656 85.3672 159.859 85.4688 159.047 85.4688C157.281 85.4688 155.617 85.1719 154.055 84.5781C152.508 83.9844 151.148 83.125 149.977 82C148.82 80.8594 147.906 79.4688 147.234 77.8281C146.562 76.1875 146.227 74.3203 146.227 72.2266C146.227 70.2734 146.562 68.4844 147.234 66.8594C147.906 65.2188 148.82 63.8125 149.977 62.6406C151.148 61.4688 152.508 60.5625 154.055 59.9219C155.617 59.2656 157.281 58.9375 159.047 58.9375C159.859 58.9375 160.664 59.0391 161.461 59.2422C162.258 59.4453 163.031 59.7266 163.781 60.0859C164.531 60.4453 165.242 60.8672 165.914 61.3516C166.602 61.8359 167.242 62.3594 167.836 62.9219L170.32 59.9453H171.867V85ZM165.422 72.2266C165.422 71.3516 165.25 70.5078 164.906 69.6953C164.578 68.8672 164.125 68.1406 163.547 67.5156C162.969 66.875 162.289 66.3672 161.508 65.9922C160.742 65.6016 159.922 65.4062 159.047 65.4062C158.172 65.4062 157.344 65.5547 156.562 65.8516C155.797 66.1484 155.125 66.5859 154.547 67.1641C153.984 67.7422 153.539 68.4609 153.211 69.3203C152.883 70.1641 152.719 71.1328 152.719 72.2266C152.719 73.3203 152.883 74.2969 153.211 75.1562C153.539 76 153.984 76.7109 154.547 77.2891C155.125 77.8672 155.797 78.3047 156.562 78.6016C157.344 78.8984 158.172 79.0469 159.047 79.0469C159.922 79.0469 160.742 78.8594 161.508 78.4844C162.289 78.0938 162.969 77.5859 163.547 76.9609C164.125 76.3203 164.578 75.5938 164.906 74.7812C165.25 73.9531 165.422 73.1016 165.422 72.2266ZM183.211 85H176.766V49.9141H183.211V85ZM226.725 74.9219C226.725 76.3125 226.459 77.6172 225.928 78.8359C225.397 80.0547 224.67 81.125 223.748 82.0469C222.842 82.9531 221.78 83.6719 220.561 84.2031C219.342 84.7344 218.038 85 216.647 85H199.842V51.3906H216.647C218.038 51.3906 219.342 51.6562 220.561 52.1875C221.78 52.7188 222.842 53.4453 223.748 54.3672C224.67 55.2734 225.397 56.3359 225.928 57.5547C226.459 58.7734 226.725 60.0781 226.725 61.4688C226.725 62.0938 226.639 62.7344 226.467 63.3906C226.295 64.0469 226.053 64.6797 225.741 65.2891C225.428 65.8984 225.053 66.4531 224.616 66.9531C224.178 67.4531 223.694 67.8672 223.163 68.1953C223.709 68.4922 224.202 68.8984 224.639 69.4141C225.077 69.9141 225.452 70.4688 225.764 71.0781C226.077 71.6875 226.311 72.3281 226.467 73C226.639 73.6562 226.725 74.2969 226.725 74.9219ZM206.569 78.2734H216.647C217.116 78.2734 217.553 78.1875 217.959 78.0156C218.366 77.8438 218.717 77.6094 219.014 77.3125C219.327 77 219.569 76.6406 219.741 76.2344C219.913 75.8281 219.998 75.3906 219.998 74.9219C219.998 74.4531 219.913 74.0156 219.741 73.6094C219.569 73.2031 219.327 72.8516 219.014 72.5547C218.717 72.2422 218.366 72 217.959 71.8281C217.553 71.6562 217.116 71.5703 216.647 71.5703H206.569V78.2734ZM206.569 64.8438H216.647C217.116 64.8438 217.553 64.7578 217.959 64.5859C218.366 64.4141 218.717 64.1797 219.014 63.8828C219.327 63.5703 219.569 63.2109 219.741 62.8047C219.913 62.3828 219.998 61.9375 219.998 61.4688C219.998 61 219.913 60.5625 219.741 60.1562C219.569 59.75 219.327 59.3984 219.014 59.1016C218.717 58.7891 218.366 58.5469 217.959 58.375C217.553 58.2031 217.116 58.1172 216.647 58.1172H206.569V64.8438ZM237.577 85H231.131V49.9141H237.577V85ZM266.733 72.2266C266.733 74.1016 266.397 75.8516 265.725 77.4766C265.053 79.0859 264.139 80.4844 262.983 81.6719C261.827 82.8438 260.467 83.7734 258.905 84.4609C257.358 85.1328 255.694 85.4688 253.913 85.4688C252.147 85.4688 250.483 85.1328 248.92 84.4609C247.373 83.7734 246.014 82.8438 244.842 81.6719C243.686 80.4844 242.772 79.0859 242.1 77.4766C241.428 75.8516 241.092 74.1016 241.092 72.2266C241.092 70.3203 241.428 68.5547 242.1 66.9297C242.772 65.3047 243.686 63.9062 244.842 62.7344C246.014 61.5469 247.373 60.6172 248.92 59.9453C250.483 59.2734 252.147 58.9375 253.913 58.9375C255.694 58.9375 257.358 59.2578 258.905 59.8984C260.467 60.5234 261.827 61.4219 262.983 62.5938C264.139 63.75 265.053 65.1484 265.725 66.7891C266.397 68.4141 266.733 70.2266 266.733 72.2266ZM260.288 72.2266C260.288 71.1953 260.116 70.2656 259.772 69.4375C259.444 68.5938 258.991 67.875 258.413 67.2812C257.834 66.6719 257.155 66.2109 256.373 65.8984C255.608 65.5703 254.788 65.4062 253.913 65.4062C253.038 65.4062 252.209 65.5703 251.428 65.8984C250.663 66.2109 249.991 66.6719 249.413 67.2812C248.85 67.875 248.405 68.5938 248.077 69.4375C247.748 70.2656 247.584 71.1953 247.584 72.2266C247.584 73.1953 247.748 74.0938 248.077 74.9219C248.405 75.75 248.85 76.4688 249.413 77.0781C249.991 77.6875 250.663 78.1719 251.428 78.5312C252.209 78.875 253.038 79.0469 253.913 79.0469C254.788 79.0469 255.608 78.8828 256.373 78.5547C257.155 78.2266 257.834 77.7656 258.413 77.1719C258.991 76.5781 259.444 75.8594 259.772 75.0156C260.116 74.1719 260.288 73.2422 260.288 72.2266ZM288.131 72.2266C288.131 71.3516 287.959 70.5078 287.616 69.6953C287.288 68.8672 286.834 68.1406 286.256 67.5156C285.678 66.875 284.998 66.3672 284.217 65.9922C283.452 65.6016 282.631 65.4062 281.756 65.4062C280.881 65.4062 280.053 65.5547 279.272 65.8516C278.506 66.1484 277.834 66.5859 277.256 67.1641C276.694 67.7422 276.248 68.4609 275.92 69.3203C275.592 70.1641 275.428 71.1328 275.428 72.2266C275.428 73.2734 275.592 74.2188 275.92 75.0625C276.248 75.8906 276.694 76.6016 277.256 77.1953C277.834 77.7891 278.506 78.25 279.272 78.5781C280.053 78.8906 280.881 79.0469 281.756 79.0469C282.631 79.0469 283.452 78.8594 284.217 78.4844C284.998 78.0938 285.678 77.5859 286.256 76.9609C286.834 76.3203 287.288 75.5938 287.616 74.7812C287.959 73.9531 288.131 73.1016 288.131 72.2266ZM294.577 81.8359C294.577 83.6016 294.241 85.2578 293.569 86.8047C292.897 88.3516 291.975 89.7031 290.803 90.8594C289.647 92.0156 288.288 92.9297 286.725 93.6016C285.178 94.2734 283.522 94.6094 281.756 94.6094L278.545 94.5625V88.1641L281.709 88.2109C282.709 88.2109 283.561 88.0781 284.264 87.8125C284.967 87.5625 285.561 87.2109 286.045 86.7578C286.53 86.3203 286.913 85.8125 287.194 85.2344C287.491 84.6562 287.725 84.0469 287.897 83.4062C287.647 83.8125 287.288 84.1484 286.819 84.4141C286.35 84.6641 285.827 84.8672 285.248 85.0234C284.686 85.1953 284.092 85.3125 283.467 85.375C282.858 85.4375 282.288 85.4688 281.756 85.4688C279.991 85.4688 278.327 85.1641 276.764 84.5547C275.217 83.9453 273.858 83.0781 272.686 81.9531C271.53 80.8125 270.616 79.4219 269.944 77.7812C269.272 76.1406 268.936 74.2891 268.936 72.2266C268.936 70.3359 269.272 68.5781 269.944 66.9531C270.616 65.3281 271.53 63.9219 272.686 62.7344C273.858 61.5469 275.217 60.6172 276.764 59.9453C278.327 59.2734 279.991 58.9375 281.756 58.9375C282.569 58.9375 283.373 59.0391 284.17 59.2422C284.967 59.4453 285.741 59.7266 286.491 60.0859C287.241 60.4453 287.952 60.8672 288.623 61.3516C289.311 61.8359 289.952 62.3594 290.545 62.9219L293.03 59.9453H294.577V81.8359Z" fill="black"/>
</g>
<defs>
<clipPath id="clip0">
<rect width="310" height="95" fill="white"/>
</clipPath>
</defs>
</svg>
